HIERARCHY
ROOT Hips
{
	OFFSET 0.000000 0.000000 0.000000
	CHANNELS 6 Xposition Yposition Zposition Xrotation Yrotation Zrotation
	JOINT LeftUpLeg_virtual
	{
		OFFSET 0.000000 0.000000 0.000000
		CHANNELS 3 Xrotation Yrotation Zrotation
		JOINT LeftUpLeg
		{
			OFFSET 10.205400 -3.823500 0.155100
			CHANNELS 3 Xrotation Yrotation Zrotation
			JOINT LeftLeg
			{
				OFFSET 0.708757 -12.982077 0.567790
				CHANNELS 3 Xrotation Yrotation Zrotation
				JOINT LeftFoot
				{
					OFFSET -0.708756 -10.717838 -2.184338
					CHANNELS 3 Xrotation Yrotation Zrotation
					JOINT LeftToeBase
					{
						OFFSET 0.108149 -7.191104 7.560241
						CHANNELS 3 Xrotation Yrotation Zrotation
						JOINT LeftToe_End
						{
							OFFSET 0.070230 0.081724 4.490308
							CHANNELS 3 Xrotation Yrotation Zrotation
							End Site
							{
								OFFSET 0 0 0
							}
						}
					}
				}
			}
		}
	}
	JOINT RightUpLeg_virtual
	{
		OFFSET 0.000000 0.000000 0.000000
		CHANNELS 3 Xrotation Yrotation Zrotation
		JOINT RightUpLeg
		{
			OFFSET -10.205400 -3.823500 0.005500
			CHANNELS 3 Xrotation Yrotation Zrotation
			JOINT RightLeg
			{
				OFFSET -0.708756 -12.982134 0.610632
				CHANNELS 3 Xrotation Yrotation Zrotation
				JOINT RightFoot
				{
					OFFSET 0.708754 -10.717769 -1.945823
					CHANNELS 3 Xrotation Yrotation Zrotation
					JOINT RightToeBase
					{
						OFFSET -0.108140 -7.191069 7.372968
						CHANNELS 3 Xrotation Yrotation Zrotation
						JOINT RightToe_End
						{
							OFFSET -0.070227 0.081735 4.479403
							CHANNELS 3 Xrotation Yrotation Zrotation
							End Site
							{
								OFFSET 0 0 0
							}
						}
					}
				}
			}
		}
	}
	JOINT Spine_virtual
	{
		OFFSET 0.000000 0.000000 0.000000
		CHANNELS 3 Xrotation Yrotation Zrotation
		JOINT Spine
		{
			OFFSET 0.000000 6.876099 0.125700
			CHANNELS 3 Xrotation Yrotation Zrotation
			JOINT Spine1
			{
				OFFSET 0.000000 5.730043 0.104720
				CHANNELS 3 Xrotation Yrotation Zrotation
				JOINT Spine1_split
				{
					OFFSET 0.000000 5.730043 0.104720
					CHANNELS 3 Xrotation Yrotation Zrotation
					JOINT Spine2
					{
						OFFSET 0.000000 5.730043 0.104720
						CHANNELS 3 Xrotation Yrotation Zrotation
						JOINT Neck_virtual
						{
							OFFSET 0.000000 0.000000 0.000000
							CHANNELS 3 Xrotation Yrotation Zrotation
							JOINT Neck
							{
								OFFSET 0.000000 10.314075 0.188496
								CHANNELS 3 Xrotation Yrotation Zrotation
								JOINT Head
								{
									OFFSET 0.000000 7.643700 -2.377400
									CHANNELS 3 Xrotation Yrotation Zrotation
									JOINT HeadTop_End
									{
										OFFSET 0.000000 43.788605 -13.619600
										CHANNELS 3 Xrotation Yrotation Zrotation
										End Site
										{
											OFFSET 0 0 0
										}
									}
								}
							}
						}
						JOINT LeftShoulder_virtual
						{
							OFFSET 0.000000 0.000000 0.000000
							CHANNELS 3 Xrotation Yrotation Zrotation
							JOINT LeftShoulder
							{
								OFFSET 2.196100 4.412489 0.087492
								CHANNELS 3 Xrotation Yrotation Zrotation
								JOINT LeftShoulder_split
								{
									OFFSET 2.196100 4.412489 0.087492
									CHANNELS 3 Xrotation Yrotation Zrotation
									JOINT LeftArm
									{
										OFFSET 8.771219 -2.981674 -0.026999
										CHANNELS 3 Xrotation Yrotation Zrotation
										JOINT LeftForeArm
										{
											OFFSET 8.512804 0.000000 -0.000000
											CHANNELS 3 Xrotation Yrotation Zrotation
											JOINT LeftHand
											{
												OFFSET 18.484802 0.000000 -0.000000
												CHANNELS 3 Xrotation Yrotation Zrotation
												End Site
												{
													OFFSET 0 0 0
												}
											}
										}
									}
								}
							}
						}
						JOINT RightShoulder_virtual
						{
							OFFSET 0.000000 0.000000 0.000000
							CHANNELS 3 Xrotation Yrotation Zrotation
							JOINT RightShoulder
							{
								OFFSET -2.196100 4.412496 0.070690
								CHANNELS 3 Xrotation Yrotation Zrotation
								JOINT RightShoulder_split
								{
									OFFSET -2.196100 4.412496 0.070690
									CHANNELS 3 Xrotation Yrotation Zrotation
									JOINT RightArm
									{
										OFFSET -8.771282 -2.981682 -0.094208
										CHANNELS 3 Xrotation Yrotation Zrotation
										JOINT RightForeArm
										{
											OFFSET -8.494598 0.000000 0.000000
											CHANNELS 3 Xrotation Yrotation Zrotation
											JOINT RightHand
											{
												OFFSET -18.483803 0.000000 0.000001
												CHANNELS 3 Xrotation Yrotation Zrotation
												End Site
												{
													OFFSET 0 0 0
												}
											}
										}
									}
								}
							}
						}
					}
				}
			}
		}
	}
}
MOTION
Frames: 4
Frame Time: 0.03333333
0.633360 28.598579 -0.651480 0.000000 0.000000 0.000000 9.498625 -61.495581 10.123694 -41.998147 3.740778 34.587436 44.708461 -12.167223 0.011671 -7.403613 0.866827 -25.254949 -1.836430 -0.000606 -0.000033 0.000000 0.000000 0.000000 9.498625 -61.495581 10.123694 -27.932076 -15.142642 -45.127804 44.468838 11.515031 -2.764036 -21.027506 -6.257981 32.367809 -0.001678 -0.000462 -0.000007 0.000000 0.000000 0.000000 9.498625 -61.495581 10.123694 15.063998 -0.448765 -4.270516 5.872399 0.563935 -2.798214 0.000000 0.000000 0.000000 0.000000 0.000000 0.000000 5.868714 0.648184 -2.860162 -3.632888 1.437151 3.747493 -20.005957 54.836788 2.407372 0.000000 0.000000 0.000000 5.868714 0.648184 -2.860162 1.828098 -3.192677 -12.271607 0.000000 0.000000 0.000000 -39.387423 26.350489 -34.911108 0.429391 -46.808451 0.416230 0.000000 0.000000 0.000000 5.868714 0.648184 -2.860162 0.632604 7.257361 8.700334 0.000000 0.000000 0.000000 7.936008 -9.680154 53.429899 -22.867437 36.194706 17.955461 0.000000 0.000000 0.000000 
0.517010 28.947437 0.088413 0.000000 0.000000 0.000000 9.106373 -62.046955 9.521493 -40.402423 4.958203 33.888093 45.666112 -11.792524 0.062442 -9.835366 1.046093 -23.891829 -1.836429 -0.000611 -0.000035 0.000000 0.000000 0.000000 9.106373 -62.046955 9.521493 -24.768935 -12.958809 -43.535482 43.748161 7.868973 -1.877129 -17.623165 -7.178844 32.452039 -2.463877 -0.054689 1.093987 0.000000 0.000000 0.000000 9.106373 -62.046955 9.521493 15.049016 -0.542374 -4.220891 5.633807 0.369655 -2.696477 0.000000 0.000000 0.000000 0.000000 0.000000 0.000000 5.629848 0.454786 -2.759861 -3.655637 1.814229 3.662543 -19.581883 54.532364 1.920064 0.000000 0.000000 0.000000 5.629848 0.454786 -2.759861 1.851100 -3.205589 -12.196460 0.000000 0.000000 0.000000 -39.716628 26.246972 -34.186521 2.759073 -45.717431 2.309621 0.000000 0.000000 0.000000 5.629848 0.454786 -2.759861 0.772941 7.546830 9.119189 0.000000 0.000000 0.000000 2.943624 -7.711108 52.563466 -20.404009 29.266117 13.879036 0.000000 0.000000 0.000000 
0.391961 29.296619 0.859140 0.000000 0.000000 0.000000 8.744232 -62.569007 8.926326 -38.646225 6.176371 33.050917 46.398431 -11.272356 0.121778 -12.226595 1.156220 -22.569660 -1.836427 -0.000601 -0.000035 0.000000 0.000000 0.000000 8.744232 -62.569007 8.926326 -21.981577 -10.095814 -41.825657 44.014036 4.138164 -0.948624 -14.336724 -8.107213 32.059077 -4.783392 -0.133374 1.674496 0.000000 0.000000 0.000000 8.744232 -62.569007 8.926326 14.996152 -0.785799 -4.063348 5.045685 -0.128988 -2.448175 0.000000 0.000000 0.000000 0.000000 0.000000 0.000000 5.041000 -0.041595 -2.515155 -3.720504 2.785943 3.434601 -18.635229 53.713069 0.794573 0.000000 0.000000 0.000000 5.041000 -0.041595 -2.515155 1.873381 -3.331855 -12.087022 0.000000 0.000000 0.000000 -40.480069 25.785480 -33.065093 6.768829 -44.015098 5.583207 0.000000 0.000000 0.000000 5.041000 -0.041595 -2.515155 0.936694 7.766039 9.550937 0.000000 0.000000 0.000000 -1.613892 -5.712798 52.002048 -18.552337 22.793219 10.360613 0.000000 0.000000 0.000000 
0.241176 29.611229 1.727547 0.000000 0.000000 0.000000 8.618630 -62.938977 8.457746 -37.059063 7.262630 32.065279 47.471212 -10.740093 0.201471 -14.932072 1.223728 -21.128536 -1.836428 -0.000612 -0.000034 0.000000 0.000000 0.000000 8.618630 -62.938977 8.457746 -20.256364 -4.592182 -38.907111 47.557668 0.223815 -0.108677 -12.365676 -9.251442 30.406196 -6.347663 -0.338964 0.527592 0.000000 0.000000 0.000000 8.618630 -62.938977 8.457746 14.893936 -1.104910 -3.822454 4.298303 -0.805949 -2.138085 0.000000 0.000000 0.000000 0.000000 0.000000 0.000000 4.292548 -0.715841 -2.209660 -3.818489 4.116820 3.101288 -17.633245 52.530466 -0.480020 0.000000 0.000000 0.000000 4.292548 -0.715841 -2.209660 1.949454 -3.526680 -11.745768 0.000000 0.000000 0.000000 -41.471051 25.115205 -32.276875 9.414640 -42.555972 7.776765 0.000000 0.000000 0.000000 4.292548 -0.715841 -2.209660 1.113380 7.883249 10.023624 0.000000 0.000000 0.000000 -4.540858 -4.564116 51.563721 -17.617657 19.210889 8.374694 0.000000 0.000000 0.000000 
